<svg xmlns="http://www.w3.org/2000/svg" viewBox="0 0 636 300"><title>swimlane-brand-dotnet-foundation</title><path d="M325.3,25A125.033,125.033,0,0,0,202.185,128.271a21.462,21.462,0,0,1-.017,42.923l-.072,0A125.005,125.005,0,1,0,325.3,25Z" fill="#68217a"/><path d="M285.011,164.509H272.149l-23.317-35.547a51.548,51.548,0,0,1-2.84-4.695h-.157q.315,3.156.316,9.153v31.089H234.116V107.933h13.73L270.3,142.376l2.84,4.617h.159a61.714,61.714,0,0,1-.316-7.773V107.933h12.034Zm46.87,0H297.952V107.933H330.58V118.31H310.7V130.9h18.5v10.336H310.7v12.942h21.186Zm48.8-46.2H364.549v46.2H351.766v-46.2H335.709V107.933h44.976Z" fill="#fff"/><path d="M243.538,181.515a6.26,6.26,0,0,0-6.427,5.558,18.079,18.079,0,0,0-.145,3.051c-.8.287-1.926-.4-2.519.269.181.711-.477,1.993.722,2.05.623.059,1.768-.381,1.855.655-.157,5.05,0,10.145-.058,15.214.264.719-.558,2.538.464,2.475.744-.084,2.039.58,2.347-.343v-18.06h6.379c-.158-.728.487-1.877-.262-2.3-2.06.172-4.156.023-6.229.073-.1-2.084-.023-4.967,2.272-5.863a9.058,9.058,0,0,1,5.551.029c-.169-.817.591-2.113-.33-2.564a20.148,20.148,0,0,0-3.619-.237Zm13.442,8.037a8.957,8.957,0,0,0-9.33,7.191c-1,4.157-.529,9.127,2.589,12.309,3.869,3.545,10.8,3.258,13.915-1.18,2.371-3.278,2.492-7.61,1.582-11.4a8.919,8.919,0,0,0-8.363-6.91c.121.02-.545-.039-.394-.014Zm.01,2.3a6.3,6.3,0,0,1,6.086,5.936c.542,3.421.365,7.564-2.387,10.035-3.125,2.561-8.74,1.266-9.842-2.813a13.93,13.93,0,0,1,.415-10.118,6.107,6.107,0,0,1,5.728-3.041Zm14.408-1.773c-1.326-.157-.642,1.537-.8,2.287.074,4.39-.144,8.84.1,13.187.285,2.71,2.133,5.357,4.98,5.746,3.139.645,6.42-.773,8.733-2.887.908-.044.469,1.34.548,1.865-.025,1.075,1.45.484,2.1.525,1.208.26.554-1.243.715-2.017V190.193c-.926.186-2.1-.523-2.79.2-.049,5.2-.007,10.4-.02,15.605-2.56,2.046-6.18,3.713-9.409,2.253-2.374-1.467-2.114-4.66-2.144-7.07V190.193a17.478,17.478,0,0,1-2.009-.111Zm32.357-.516c-2.709.133-5.108,1.652-7.109,3.375-.348-.922.39-2.121-.289-2.841-.874.212-2.193-.451-2.675.566.242,5.515.035,11.086.1,16.623.141,1.084-.281,2.78.2,3.5.852-.131,2.088.574,2.6-.266.012-5.176,0-10.353.005-15.529,2.6-2.07,6.36-3.816,9.58-2.119,2.186,1.45,1.883,4.456,1.972,6.738V210.8c.926-.186,2.1.523,2.789-.2-.071-5.3.262-10.631-.193-15.9a6.078,6.078,0,0,0-5.961-5.125c-.343-.015-.685-.015-1.027,0Zm27.689-7.936c-1.326-.157-.642,1.537-.8,2.287-.077,2.291.147,4.669-.1,6.911-.921.474-1.765-.772-2.711-.795-4.026-1.441-9.1.255-10.987,4.231a15.4,15.4,0,0,0-.091,13.247,7.414,7.414,0,0,0,7.917,3.838,11.635,11.635,0,0,0,5.919-3.179c.357.867-.4,2.08.293,2.745.887-.228,2.182.429,2.675-.584-.242-5.514-.036-11.085-.1-16.621V181.74a17.031,17.031,0,0,1-2.01-.111ZM325.1,192.056c1.891.061,4.128.293,5.544,1.56-.054,4.186.106,8.477-.078,12.6-2.58,2.136-6.5,3.6-9.621,1.738-2.769-2.055-2.773-5.936-2.608-9.051.2-3.12,2.3-6.478,5.656-6.767A8.371,8.371,0,0,1,325.1,192.056Zm20.058-2.39a29.261,29.261,0,0,0-5.309.867c.152.927-.39,2.027.121,2.794,3.475-1.178,7.575-2.124,11-.343a4.657,4.657,0,0,1,1.593,4.436c-4.377.441-9.347-.028-12.935,2.993-3.2,3.124-1.839,9.42,2.582,10.652,3.447,1.149,7.17-.314,9.866-2.535.911-.01.358,1.359.47,1.88-.069.783,1.034.166,1.494.455.639.177,1.642.068,1.326-.824-.112-5.2.247-10.43-.206-15.615-.649-2.911-3.625-4.577-6.43-4.678a22.625,22.625,0,0,0-3.576-.081Zm7.422,10.087c-.1,2.164.2,4.422-.161,6.522-2.675,2.21-6.675,3.552-9.941,1.862-2.649-1.719-1.984-6.4,1.067-7.293,2.85-1.227,6.02-.959,9.035-1.314v.223Zm9.57-15.852c-1.326-.157-.642,1.538-.8,2.287-.127,1.25.234,2.656-.146,3.827-.652.582-1.85-.359-2.325.319-.039.8-.313,2.474,1.048,2.136.667-.383,1.676-.042,1.476.863-.121,2.97.007,5.967-.082,8.953.115,2.627-.269,5.851,2.056,7.7,2.323,1.876,5.541,1.31,8.217.758-.143-.782.351-1.738-.06-2.4-2.07.652-4.94,1.14-6.475-.8-1.487-2.242-.666-5.095-.9-7.585v-7.582H371.6c-.159-.729.487-1.878-.264-2.305-2.374.173-4.786.022-7.175.072v-6.138a17.251,17.251,0,0,1-2.01-.11Zm13.086-1.156c-1.1.183-.254,1.768-.517,2.507.157,1.082,2.271.207,3.226.491-.133-.954.464-2.133-.179-2.939-.849.156-1.7-.141-2.53-.059Zm.515,7.336c-1.326-.156-.642,1.538-.8,2.288V210.8c.926-.186,2.1.523,2.789-.2.05-6.8.008-13.6.022-20.4a17.488,17.488,0,0,1-2.011-.111Zm15.4-.516a8.99,8.99,0,0,0-8.687,7.95c-.778,4.068-.165,8.883,3.084,11.822,4.118,3.447,11.291,2.715,14.033-2.122a14.482,14.482,0,0,0,.894-11.512,8.8,8.8,0,0,0-8.311-6.137c-.338-.019-.675-.007-1.013,0Zm.82,2.289a6.305,6.305,0,0,1,6.085,5.936c.541,3.421.365,7.564-2.388,10.035-3.125,2.561-8.741,1.265-9.843-2.813a13.929,13.929,0,0,1,.415-10.118,6.113,6.113,0,0,1,5.731-3.041Zm23.729-2.289c-2.71.132-5.108,1.653-7.109,3.375-.347-.922.392-2.121-.289-2.841-.873.212-2.192-.451-2.674.566.242,5.515.035,11.086.1,16.623.143,1.084-.279,2.78.2,3.5.851-.131,2.087.574,2.6-.266.014-5.176,0-10.353.007-15.529,2.594-2.07,6.358-3.816,9.577-2.119,2.186,1.449,1.885,4.456,1.973,6.738V210.8c.926-.186,2.1.523,2.789-.2-.072-5.3.265-10.631-.195-15.9a6.071,6.071,0,0,0-5.959-5.125c-.343-.015-.686-.015-1.028,0Z" fill="#fff"/><path d="M217.288,150.113A15.793,15.793,0,1,1,201.5,134.32,15.792,15.792,0,0,1,217.288,150.113Z" fill="#cf18fd"/></svg>